<mxfile host="app.diagrams.net" modified="2024-03-25T13:17:54.920Z" agent="Mozilla/5.0 (Macintosh; Intel Mac OS X 10_15_7) AppleWebKit/537.36 (KHTML, like Gecko) Chrome/123.0.0.0 Safari/537.36" etag="Moj7uWHCau1N1j96oWIi" version="24.0.2" type="device">
  <diagram name="Page-1" id="3Q03zq1m-8slK2Si_ve6">
    <mxGraphModel dx="1468" dy="834" grid="1" gridSize="10" guides="1" tooltips="1" connect="1" arrows="1" fold="1" page="1" pageScale="1" pageWidth="1654" pageHeight="1169" math="0" shadow="0">
      <root>
        <mxCell id="0" />
        <mxCell id="1" parent="0" />
        <mxCell id="GZyRYKclA0aXRfN75kWg-28" value="" style="rounded=0;whiteSpace=wrap;html=1;strokeColor=none;" vertex="1" parent="1">
          <mxGeometry x="60" y="110" width="1010" height="430" as="geometry" />
        </mxCell>
        <mxCell id="GZyRYKclA0aXRfN75kWg-2" value="" style="shape=image;verticalLabelPosition=bottom;labelBackgroundColor=default;verticalAlign=top;aspect=fixed;imageAspect=0;image=https://static.vecteezy.com/system/resources/thumbnails/008/884/509/small/audio-signal-icon-sound-icon-sound-waves-symbol-music-pulse-sign-vector.jpg;" vertex="1" parent="1">
          <mxGeometry x="126.9" y="200" width="121.8" height="35" as="geometry" />
        </mxCell>
        <mxCell id="GZyRYKclA0aXRfN75kWg-3" value="&lt;b&gt;&lt;font style=&quot;font-size: 20px;&quot;&gt;Input Signal (Time Domain)&lt;/font&gt;&lt;/b&gt;" style="text;html=1;align=center;verticalAlign=middle;whiteSpace=wrap;rounded=0;" vertex="1" parent="1">
          <mxGeometry x="102.8" y="140" width="170" height="40" as="geometry" />
        </mxCell>
        <mxCell id="GZyRYKclA0aXRfN75kWg-4" value="" style="shape=flexArrow;endArrow=classic;html=1;rounded=0;strokeWidth=2;" edge="1" parent="1">
          <mxGeometry width="50" height="50" relative="1" as="geometry">
            <mxPoint x="350" y="239.41" as="sourcePoint" />
            <mxPoint x="430" y="239.41" as="targetPoint" />
          </mxGeometry>
        </mxCell>
        <mxCell id="GZyRYKclA0aXRfN75kWg-5" value="&lt;b&gt;&lt;font style=&quot;font-size: 20px;&quot;&gt;Linear Gain&lt;/font&gt;&lt;/b&gt;" style="text;html=1;align=center;verticalAlign=middle;whiteSpace=wrap;rounded=0;" vertex="1" parent="1">
          <mxGeometry x="480" y="127" width="170" height="40" as="geometry" />
        </mxCell>
        <mxCell id="GZyRYKclA0aXRfN75kWg-6" value="" style="shape=image;verticalLabelPosition=bottom;labelBackgroundColor=default;verticalAlign=top;aspect=fixed;imageAspect=0;image=data:image/png,iVBORw0KGgoAAAANSUhEUgAAARwAAAEoCAYAAACKH05bAAAMPmlDQ1BJQ0MgUHJvZmlsZQAASImVVwdYU8kWnltSIbQAAlJCb4KIlABSQmgBpHcbIQkQSoyBoGJHFhVcCyoWsKGrIoqdZkfsLIq9LxYUlHWxYFfepICu+8r35vvmzn//OfOfM+fO3HsHAPUTXLE4B9UAIFeUL4kJ9mckJacwSN0ABWSgAwBw5PLyxKyoqHCIwWD79/LuBkBk7VUHmdY/+/9r0eQL8ngAIFEQp/HzeLkQHwQAr+KJJfkAEGW8+dR8sQzDCrQlMECIF8pwhgJXyXCaAu+V28TFsCFuBYCsyuVKMgBQuwx5RgEvA2qo9UHsJOILRQCoMyD2yc2dzIc4FWIbaCOGWKbPTPtBJ+NvmmlDmlxuxhBWzEVeyAHCPHEOd/r/mY7/XXJzpIM+rGBVzZSExMjmDPN2K3tymAyrQtwrSouIhFgL4g9CvtweYpSaKQ2JV9ijhrw8NswZ0IXYic8NCIPYEOIgUU5EuJJPSxcGcSCGKwSdJsznxEGsB/FCQV5grNJmk2RyjNIXWp8uYbOU/DmuRO5X5uuBNDuepdR/nSngKPUxtcLMuESIqRBbFAgTIiBWg9gxLzs2TGkzpjCTHTFoI5HGyOK3gDhGIAr2V+hjBemSoBilfWlu3uB8sU2ZQk6EEu/Pz4wLUeQHa+Vx5fHDuWCXBSJW/KCOIC8pfHAufEFAoGLuWLdAFB+r1PkgzvePUYzFqeKcKKU9bibICZbxZhC75BXEKsfiCflwQSr08XRxflScIk68MIsbGqWIB18GwgEbBAAGkMKaBiaDLCBs723ohXeKniDABRKQAQTAQckMjkiU94jgNRYUgj8hEoC8oXH+8l4BKID81yFWcXUA6fLeAvmIbPAU4lwQBnLgvVQ+SjTkLQE8gYzwH965sPJgvDmwyvr/PT/IfmdYkAlXMtJBjwz1QUtiIDGAGEIMItriBrgP7oWHw6sfrM44E/cYnMd3e8JTQgfhEeE6oZNwe5KwSPJTlGNBJ9QPUuYi7cdc4FZQ0xX3x72hOlTGdXED4IC7QD8s3Bd6doUsWxm3LCuMn7T/NoMfnobSjuJEQSnDKH4Um59HqtmpuQ6pyHL9Y34UsaYN5Zs91POzf/YP2efDNuxnS2whdgA7i53EzmNHsAbAwI5jjVgbdlSGh1bXE/nqGvQWI48nG+oI/+Fv8MnKMpnnVOvU4/RF0ZcvmCZ7RwP2ZPF0iTAjM5/Bgl8EAYMj4jmOYDg7ObsAIPu+KF5fb6Ll3w1Et+07N/8PALyPDwwMHP7OhR4HYJ873P5N3zkbJvx0qABwroknlRQoOFx2IcC3hDrcafrAGJgDGzgfZ+AGvIAfCAShIBLEgWQwEUafCde5BEwFM8E8UALKwDKwCqwDG8EWsAPsBvtBAzgCToIz4CK4DK6Du3D1dIEXoA+8A58RBCEhNISO6CMmiCVijzgjTMQHCUTCkRgkGUlFMhARIkVmIvORMqQcWYdsRmqQfUgTchI5j3Qgt5GHSA/yGvmEYqgqqo0aoVboSJSJstAwNA6dgGagU9BCtBhdgq5Bq9FdaD16Er2IXkc70RdoPwYwFUwXM8UcMCbGxiKxFCwdk2CzsVKsAqvG6rBm+JyvYp1YL/YRJ+J0nIE7wBUcgsfjPHwKPhtfjK/Dd+D1eCt+FX+I9+HfCDSCIcGe4EngEJIIGYSphBJCBWEb4RDhNNxLXYR3RCJRl2hNdId7MZmYRZxBXExcT9xDPEHsID4m9pNIJH2SPcmbFEnikvJJJaS1pF2k46QrpC7SB7IK2YTsTA4ip5BF5CJyBXkn+Rj5CvkZ+TNFg2JJ8aREUviU6ZSllK2UZsolShflM1WTak31psZRs6jzqGuoddTT1HvUNyoqKmYqHirRKkKVuSprVPaqnFN5qPJRVUvVTpWtOl5VqrpEdbvqCdXbqm9oNJoVzY+WQsunLaHV0E7RHtA+qNHVHNU4any1OWqVavVqV9ReqlPULdVZ6hPVC9Ur1A+oX1Lv1aBoWGmwNbgaszUqNZo0bmr0a9I1R2lGauZqLtbcqXles1uLpGWlFajF1yrW2qJ1SusxHaOb09l0Hn0+fSv9NL1Lm6htrc3RztIu096t3a7dp6Ol46KToDNNp1LnqE6nLqZrpcvRzdFdqrtf94bup2FGw1jDBMMWDasbdmXYe73hen56Ar1SvT161/U+6TP0A/Wz9ZfrN+jfN8AN7AyiDaYabDA4bdA7XHu413De8NLh+4ffMUQN7QxjDGcYbjFsM+w3MjYKNhIbrTU6ZdRrrGvsZ5xlvNL4mHGPCd3Ex0RostLkuMlzhg6DxchhrGG0MvpMDU1DTKWmm03bTT+bWZvFmxWZ7TG7b041Z5qnm680bzHvszCxGGsx06LW4o4lxZJpmWm52vKs5Xsra6tEqwVWDVbd1nrWHOtC61rrezY0G1+bKTbVNtdsibZM22zb9baX7VA7V7tMu0q7S/aovZu90H69fccIwgiPEaIR1SNuOqg6sBwKHGodHjrqOoY7Fjk2OL4caTEyZeTykWdHfnNydcpx2up0d5TWqNBRRaOaR712tnPmOVc6XxtNGx00es7oxtGvXOxdBC4bXG650l3Hui5wbXH96ubuJnGrc+txt3BPda9yv8nUZkYxFzPPeRA8/D3meBzx+Ojp5pnvud/zLy8Hr2yvnV7dY6zHCMZsHfPY28yb673Zu9OH4ZPqs8mn09fUl+tb7fvIz9yP77fN7xnLlpXF2sV66e/kL/E/5P+e7cmexT4RgAUEB5QGtAdqBcYHrgt8EGQWlBFUG9QX7Bo8I/hECCEkLGR5yE2OEYfHqeH0hbqHzgptDVMNiw1bF/Yo3C5cEt48Fh0bOnbF2HsRlhGiiIZIEMmJXBF5P8o6akrU4WhidFR0ZfTTmFExM2POxtJjJ8XujH0X5x+3NO5uvE28NL4lQT1hfEJNwvvEgMTyxM6kkUmzki4mGyQLkxtTSCkJKdtS+scFjls1rmu86/iS8TcmWE+YNuH8RIOJOROPTlKfxJ10IJWQmpi6M/ULN5Jbze1P46RVpfXx2LzVvBd8P/5Kfo/AW1AueJbunV6e3p3hnbEioyfTN7Mis1fIFq4TvsoKydqY9T47Mnt79kBOYs6eXHJuam6TSEuULWqdbDx52uQOsb24RNw5xXPKqil9kjDJtjwkb0JeY742/JFvk9pIf5E+LPApqCz4MDVh6oFpmtNE09qm201fNP1ZYVDhbzPwGbwZLTNNZ86b+XAWa9bm2cjstNktc8znFM/pmhs8d8c86rzseb8XORWVF72dnzi/udioeG7x41+Cf6ktUSuRlNxc4LVg40J8oXBh+6LRi9Yu+lbKL71Q5lRWUfZlMW/xhV9H/brm14El6Uval7ot3bCMuEy07MZy3+U7yjXLC8sfrxi7on4lY2XpyrerJq06X+FSsXE1dbV0deea8DWNay3WLlv7ZV3muuuV/pV7qgyrFlW9X89ff2WD34a6jUYbyzZ+2iTcdGtz8Ob6aqvqii3ELQVbnm5N2Hr2N+ZvNdsMtpVt+7pdtL1zR8yO1hr3mpqdhjuX1qK10tqeXeN3Xd4dsLuxzqFu8x7dPWV7wV7p3uf7Uvfd2B+2v+UA80DdQcuDVYfoh0rrkfrp9X0NmQ2djcmNHU2hTS3NXs2HDjse3n7E9EjlUZ2jS49RjxUfGzheeLz/hPhE78mMk49bJrXcPZV06lprdGv76bDT584EnTl1lnX2+Dnvc0fOe55vusC80HDR7WJ9m2vbod9dfz/U7tZef8n9UuNlj8vNHWM6jl3xvXLyasDVM9c41y5ej7jecSP+xq2b42923uLf6r6dc/vVnYI7n+/OvUe4V3pf437FA8MH1X/Y/rGn063z6MOAh22PYh/dfcx7/OJJ3pMvXcVPaU8rnpk8q+l27j7SE9Rz+fm4510vxC8+95b8qfln1Uublwf/8vurrS+pr+uV5NXA68Vv9N9sf+vytqU/qv/Bu9x3n9+XftD/sOMj8+PZT4mfnn2e+oX0Zc1X26/N38K+3RvIHRgQcyVc+a8ABiuang7A6+0A0JIBoMPzGXWc4vwnL4jizCpH4D9hxRlRXtwAqIP/79G98O/mJgB7t8LjF9RXHw9AFA2AOA+Ajh49VAfPavJzpawQ4TlgE+drWm4a+DdFceb8Ie6fWyBTdQE/t/8CPYV8UoBmQPAAAACKZVhJZk1NACoAAAAIAAQBGgAFAAAAAQAAAD4BGwAFAAAAAQAAAEYBKAADAAAAAQACAACHaQAEAAAAAQAAAE4AAAAAAAAAkAAAAAEAAACQAAAAAQADkoYABwAAABIAAAB4oAIABAAAAAEAAAEcoAMABAAAAAEAAAEoAAAAAEFTQ0lJAAAAU2NyZWVuc2hvdMZCkFIAAAAJcEhZcwAAFiUAABYlAUlSJPAAAAHWaVRYdFhNTDpjb20uYWRvYmUueG1wAAAAAAA8eDp4bXBtZXRhIHhtbG5zOng9ImFkb2JlOm5zOm1ldGEvIiB4OnhtcHRrPSJYTVAgQ29yZSA2LjAuMCI+CiAgIDxyZGY6UkRGIHhtbG5zOnJkZj0iaHR0cDovL3d3dy53My5vcmcvMTk5OS8wMi8yMi1yZGYtc3ludGF4LW5zIyI+CiAgICAgIDxyZGY6RGVzY3JpcHRpb24gcmRmOmFib3V0PSIiCiAgICAgICAgICAgIHhtbG5zOmV4aWY9Imh0dHA6Ly9ucy5hZG9iZS5jb20vZXhpZi8xLjAvIj4KICAgICAgICAgPGV4aWY6UGl4ZWxZRGltZW5zaW9uPjI5NjwvZXhpZjpQaXhlbFlEaW1lbnNpb24+CiAgICAgICAgIDxleGlmOlBpeGVsWERpbWVuc2lvbj4yODQ8L2V4aWY6UGl4ZWxYRGltZW5zaW9uPgogICAgICAgICA8ZXhpZjpVc2VyQ29tbWVudD5TY3JlZW5zaG90PC9leGlmOlVzZXJDb21tZW50PgogICAgICA8L3JkZjpEZXNjcmlwdGlvbj4KICAgPC9yZGY6UkRGPgo8L3g6eG1wbWV0YT4KcJI2OwAAABxpRE9UAAAAAgAAAAAAAACUAAAAKAAAAJQAAACUAAAjv7NQidEAACOLSURBVHgB7J0HtBTF0sebZ8IECoIZUQQxgQlBERExKwJmRYyYMYIoKqgoBsSAGFAMCEaMKComBIyIiJlgBpEgGDAi6vv49ff63tplw8zszOzsbtU59+zeCd09td3/qdw1/ruUjJJyQDmgHIiBAzUUcGLgsnahHFAOWA4o4OhEUA4oB2LjgAJObKzWjpQDygEFHJ0DygHlQGwcUMCJjdXakXJAOaCAo3NAOaAciI0DCjixsVo7Ug4oBxRwdA4oB5QDsXFAASc2VmtHygHlgAKOzgHlgHIgNg4o4MTGau1IOaAcUMDROaAcUA7ExgEFnNhYrR0pB5QDCjg6B5QDyoHYOKCAExurtSPlgHJAAUfngHJAORAbBxRwYmO1dqQcUA4o4OgcUA4oB2LjQEkCzp9//hkbg7Qj5UDSOfCf//zHrLjiikkfph1fogFnyZIlZt68eebLL780kydPNp988omZNWuW+e2330yNGjVKgsE6SOVAlBygJDlroXbt2qZRo0amefPm9q9Bgwambt26BjBKEiUScACaKVOmmKefftqMGzfOLFiwwILMP//8Y7Tme5Kmj44lSRwAXPgDfDbYYAOz3377mb333ttsttlmiRlmogBn0aJF5vXXXzd33323lWj++OMPs/zyyyeGWToQ5UCpcIAX899//23q1KljQadLly6mWbNmpmbNmkV9hEQADpILKtOgQYPMpEmTDMADUqvaVNS5oZ2XAQf+/fdf+xT16tUzHTt2NCeffLKVfoq1tooOOCDxPffcY6699lrz66+/KsiUwSTXR0gmB5B4sO3ceOONpnXr1kVZa0UFHAzAAwcONKNGjTKLFy9OnIErmdNGR6UcCM4BtIl11lnHnHDCCeaYY44xa6yxRvDGAtxZNMD56aefzEknnWTeeustNQQH+OH0FuVAIRxApTr++ONNnz59YnWpFwVwcHWfdtpp1kC8wgorFMI3vVc5oBwIyAHspD179rR2nZVXXjlgK/5uix1wiKG56KKLzMiRI1WF8vdb6dXKgVA5gP10ueWWMxdeeKHVNuIIHowVcNAfb7nlFmu3cdbzUDmojSkHlAO+OADo4Dq//fbbTZs2bXzdG+Ti2ACHBxszZoxVpf7666+iWMiDMEjvUQ6UOwdYm02aNDHDhg0zDRs2jPRxYwOchQsXWss4cTbFigGIlJPauHKghDlAdD+eq/79+1s1K6pHiQ1wnnzySdOrVy/z+++/R/Us2q5yQDkQkANIOWuvvbYZMWKE2WqrrQK2kv+2WAAHQ/ERRxxho4lVusn/o+gVyoFicIC12a1bN3PppZdGpoVEDjgg5+jRo80pp5wS2kPQppJyQDnw/xwI8yW+3nrrmWeffdbUr18/EvZGDjioUAQYTZgwoWA3OJ4t4nYaN25sjVurr766bVMBKJK5oY0mnAOkKhBAO3XqVDN37lyDF5jYmkIJ08fZZ59daDMZ748ccD788ENz6KGH2jypjCPwcBBAAWxatGhhGdG+ffvQpCUP3eslyoFEc4AcxMcee8zcdttttl5UIaADaGHDwebKCz1sihxwHn30UdOjRw+LvkEGD9jw4KRBoF/GnfsRZMx6j3Igbg6wTr744gszYMAA89xzzwVOF6IdAOuVV16JpI5OpIADWuJmu+OOOwLzn3o4RCbjstM0iMBs1BsrhANIOxdccIEtXhc0uJYSvvfdd5/Zf//9Q9ckIgUcAvwAirFjxwYaOICF+jRkyJBIxLsKmYP6mBXGASSd4447zko8QQzK2IbIsTrvvPNCj8mJFHAwGFPmcMaMGYEAZ6WVVjIPPvigadWqVYVNGX1c5UBwDgAY2HP69etnWENBqFOnTuaGG24IfH+2PiMFnO+//96WN8SC7hdp0SUxXr344ovZxq7HlQPKgSwcwFnToUMHQwSx37VHk+RV3XnnnaZWrVpZegh2OFLAmTlzpjnggANsEXS/Dw3g4N2i7KiSckA54I8D8+fPt2uPIndBvFYtW7a0lTjDdtJECjioUohmxAoEAZxTTz3V9O3b1x+n9WrlgHLA7nKC0XfatGmB7DDbbLONGT58uN1qJkx2Rgo4POxBBx0UGHC6d+9uPVRhPrC2pRyoBA7gaQJw2MuNmjd+if2tAJy11lrL7605r0804Jxxxhnm4osvzvkAelI5oBxYlgMKOEsTw/wQNhwFHD8c02uVA9UcUMBRwKmeDfpNORAxBxRwFHAinmLavHKgmgMKOAo41bNBvykHIuaAAo4CTsRTTJtXDlRzQAFHAad6Nug35UDEHFDAUcCJeIpp88qBag4o4CjgVM8G/aYciJgDCjgKOBFPMW1eOVDNAQUcBZzq2aDflAMRc0ABRwEn4immzSsHqjmggKOAUz0b9JtyIGIOKOAo4EQ8xbR55UA1BxRwFHCqZ4N+Uw5EzAEFHAWciKeYNq8cqOaAAo4CTvVsSPA3yoKw2wYT9o8//rDF0xYsWGAWLlxoj3Nu8eLFVef5zlY+K6+8sqlZs6Ytur3iiisa/thPjC1j69SpY1ZddVV7nmuClLxMMMsSOTQFHAWcRE5MNygK3r/11lvm448/NnPmzDGzZ8+228eyzxGgAtCwzxF/gBJ/mYhSslSY4xMgciBUr149w77V66+/vtloo41ske5NN900UDW6TP3qsVQOKOAo4KTOiCL+B3gsWrTIAstHH31kxo8fbyZPnmzmzZtn2NoHCQTQ4NNvLepsjwVQsc8Yf7QNADVq1MjuO7bDDjuYhg0b2l1VkZRUAsrGRe/HFXAUcLzPloiuRC169913LcC899575rvvvjM//PCDlVroMixw8TJ8KSGhbq277rqmSZMmVvJp3bq12XjjjVX68cLILNco4CjgZJka0R5GokBdeuaZZ+ymgtOnTzdslJbEbZMZK5IQhbv33Xdfu2srahf2oDjBMNpfJJ7WFXAUcOKZaf/r5ccffzQTJ040L7zwgpkwYYJVn5AqSkFdcdLPKqusYrbbbju7mWLbtm3NJptsUhLjj/WHztKZAo4CTpapEe5hpBdsMkOHDjVvv/22NfiWAshk4wLgg3TToEED07VrV/uH90spNwcUcBRwcs+QAs9ii5k0aZIZOXKkeemll+wWr6UMNOnscFIPUs5xxx1n2rVrZ+085fSM6c9cyP8KOAo4hcyfrPdi83jzzTfNkCFDrESDl6mc7R0AD+52JJ5u3brZnV3D3o42K7NL6IQCjgJOqNMVoJk7d64ZMWKE3XTeubND7STBjTmJp02bNqZ3795m8803t0GHCR5yrENTwFHACW3CoT49/fTTdivWqVOnVrQhFeBdc801TYcOHczxxx9vmjZtGhqfS7khBRwFnFDm7zfffGN69epl3njjDetCLmf1yQ/DkHhwp19zzTXWqxVkP20//SX9WgUcBZyC5igq02uvvWYGDhxo0w/UWLosOwGd1VZbzdp2kHaIZq5UUsBRwAk890mivPXWW80dd9xhfvvtt7I2Cgdm0v9uBHQIamzZsqW5/PLLrW2n0DZL8X4FHAUc3/OWxfPFF1+YK664wowdO7YqBcF3QxV4A7Yd0iMAHYIGiVauJFLAUcDxPd9JrLzoootsfA0qlNpr/LEQ0KlVq5a54IILzNFHH11RoKOAo4Dja7VMmTLFnHLKKWbWrFkV7YXyxbQsF6NiATqnnnpqxYC2Ao4CTpblkHoYNerVV1+1CwSwqXRvSyp3gv3n7DonnXSSOeuss6zUE6yl0rlLAUcBx9NsJb7m4osvtmUjPN2gF3nmABHKhx9+uBkwYIDne0r1QgUcBZyccxd7AykKJCjilVLJJie7Ap8kufX000+3sUwU+ypXUsBRwMk5tymI1bNnTzNt2rSKsTPkZEhEJ1Gv8Fhh00HFQuopR1LAUcDJOK9ZAFTeQ7L59NNPVbLJyKXwD1JlkKjkTp06laVRXgFHASfjqiEXCtc3BcxVjcrIokgOOpc5MU6dO3dOZAXEQh5cAUcBJ+P8obYLVfk0VSEjeyI/yDY2d999t60sGHlnMXaggKOAkzLdmBD33HOPFeup5atUHA6g0u60007mtttuM2uvvXZxBhFBrwo4CjhV0wpxfvTo0aZ79+62oLlGEFexpihf+D1wl/fv399u2FeUQYTcqQKOAk7VlPr666+th4RN51SVqmJLUb/guQJwjjjiiLL4TRRwFHDsgvrll1/M2WefbcaMGaPu76JCTGrnqFbrrLOOraC45ZZbpp4swf8UcBRwbLb3XXfdZS699NKyeIuW4DrMOWRsaa1atbL7d7FFTSmTAo4Cji2cRbAZVfvUbpPM5Qzo9OvXz27CV8pBgQo4CjjmkksuMffee28yV5qOqooDDZfuc/7ggw+ajTbaqOpYqX1RwKlwwCEDHOmGPCmlZHMAew4lSineVapSjgJOBQPOzJkzbZ1dCmqpVyrZYMPoABxsOJR13WuvvUpS/VXAqVDAIcaDWsS8LTV1Iflg40bI77bttttaFbgUAwIVcCoUcH7++WebmPnuu++W5JvSLcBK/FxppZXMzTffbA444ICSe3wFnAoFnEceecScf/75RtMXSm7NWtVq7733trlWpaYKK+BUIODMmzfPHHbYYWbGjBlZbTfYC2rWrGlWX311u4/STz/9ZPjDuMy5JLjPGQfGU+waqBf8P3/+fMNeWUuWLMn6bHFCDGOCKKrFXuPsxrlgwQKzaNEiw+ILykd+m+HDh5vWrVvH+TgF96WAU2GAgw2AIL8+ffpk9XQg9ey3337mkEMOMQ2XumLZYYB9pwCqF1980Tz66KOGyOSgi6XgWbu0AZ6DseFh23rrrQ3Z1RCAA5AOHTrUfhZzjIwH9YedGXbbbTez3nrr2Q3x4B0xT4899pjNyOdZ/BL3kNxJRjkgViqkgFOjhq/fijfWGWecYev7+roxIRez//eJJ55o3n777YwSAAWgKHXJNUg3mQhXOrE7X375ZcY2Mt0T9rH27dvb6nhbbLFFRuBj3ywM4i+//HLG82GPJ7095gkpCfDpwAMPzAjuv/76qxk2bJi1x/DdLzjSB4Cz7777pnef2P8VcCoMcCZPnmyOPfZY8+OPPy4zKVFNevfubWM9ck1+3q4U5urRo4fBtZ7r2mU6KfAANosOHTqYq666yqoouZpbuHChTXxEIgsiReRqO9c5gGDddde17mt22szFH6TJxx9/3IIjKqsf4l62mKG4PVvOlAIp4FQY4Nx0003muuuuW2ZuMnm7detmLrvssoxv42VuWHpgwoQJ5uSTT7bqVabzYR9jjM2bN7cq4YYbbuipeUCHfbTeeOON2KQx7EpIVxQx80IUUKfuDVnhfgP6ttlmG/PQQw+VzBYzCjgVBDjYYbDLfPDBBylvXd7ILVq0sIW36tatm7JGcJ9/++231kay1lprpdzH5Onbt681XkYdy8MYKdWACrH77runjAMD8VdffWXHTdg/dhNJACOLf/HixfJwJN8BRVQoQL127dpVfTB+wG/OnDmmQYMGKee4CInzzDPPNK+88oovYFxttdXM/fffb3+/qs4S/EUBp4IAh8mMkZUfXYr5GIWJXmUhS8KuwC4Cr7/+ut0P+8orrzRbbbWVvMR8+OGH5sgjj7T7VUXpomXBspBvueWWZaSAkSNHmhtvvNF6qU477TQbXyTHggSBqsjClMdTHiSEf1DbABmMwel8otYQ9hz4teuuu1pASt8OhmL1vBAAea8EX7C3UQO5FEgBp0IAh0UHeOBKRVJwxBu5Y8eO5oYbbkipKoc0RLkKrkfMd14RPFzpUhARy0x4Jn9URJ8YWLfbbruqLuiPPbMAUSQEQJTrAE8WtSQkCxYzkpAEW3lNod9p16mlsi1CCZBennvuOXuYcbMrw9VXX51ih+I3ApRGjBghb8/5nd9l/fXXN88++2xJlCJVwKkQwMkWe8Pkx34A6MiFSCEuFgkxLY44jwqF3UYSbl7c6HiGZBvymkK+O1C8/vrrrVvZtYULnGRGDOFOpWMBbrbZZjarGje0I44Dinfeeac7FPonhmIAGs+ZJDLx4RtjcAS48DxHHXVUitQVRP2jXUD2oIMOcs0n9lMBp0IAZ9KkSaZLly42nsbNRsBmgw02MC+99FKKTYHjLOT0XRuY2ATYse0vdghJbCmDBBIF4Pz111/2rb/PPvtUdckYMZaiKrF4JWHT4TgVDKUKxWJGAkF6i4IA3UGDBtlARNc+ktXBBx9sQwgcKHIOXhK0h8RIQKAjwPuYY47xtT0Pi5hQDUDNr9HZ9RvXpwJOhQDOfffdZyekXJyAgyvqJCcc2eMskkyxIdx/4YUXmrPOOqtKquBe4l1w0YZd5oKFSWlNXMfSCMvEBUCJJ0onwGiHHXawRnAM3Y6wjZxwwgl2MYcNjIDckCFD7F5Srm3GgUv+vPPOy6huYvAlQFGqf9yDDQiwdO248Wf7hEc777yzNahL8Mp2fTGPK+BUCOCcc845dvLLyYYKwORuuDRi1xGTlxyrBx54IAVQ3HkWBNnKbCUjs5VnzZpl43vYQE9KFe6+Qj6RVthJQtLYsWOtapcN4AAnVBniYCRhOCZ+KExJAJ6x0AFd7CmO8IqhfiJBZgIPeElM0e23357Cs++//96QKzV37tyM97n25SfqI79ZkyZN5OHEfVfAqQDAQSrZY489UkL9mexEqGK/kW5kooeZ7NJ2kz5riUbmzdy2bduqU9hZiD3BRiJVh6oLAn5BQsGeBDg6QppgIWOEzQYcPB/XEFckie2LsXWQWhAWMDIejMAAh3x2eIlnLVOQJWNijERzk0hLPI0kAPbJJ5+Uh3J+5zfkt5RqZ84binRSAacCAOe9996z24xIFYm3Mh4R3Mhy4eFiTrd9ZJqbSAmoCpJQb0gKBXzConbt2llJRUbSzp492wIokbly7LJPFvPGG29s7VCoLo4YW69evaxROdu97lqvn3j9WOzpKQYYcvFEMZZsBFgRKYyKKqWgJ554wvTs2dNX7BC/Jb9pkkkBpwIAZ+DAgdYj4hYYC4A0BtQLdgNwhHqCfQbQcde6c/KTRbvjjjtaoy3SjiMkKd7o77//fsricef9frIAMYTi9paLcdSoUdb4K9372dpm0SN9SEJyOPfcc21GuTwe5Du8xCuGFCYlRSRE+s1XTRGekRdGaIHMXfvss8+W2qiONrNnf+tpWIxj++23N88884yn64t1kQJOmQMOE5FkTGw1boFyjIhcJqc0qmIzYMM1Jns+YnEBTBhnJREcyCLPBVjy+lzfGS+gKEsw4LEi051YFQlCmdoBGFGfCAqUYMBGf2RwYysJg4jvIWVEjoc+KJDFeOXxTP2R5ElxdIDLEQZuUjLGjx/viZf8pthx8MTxMkkqKeCUOeDwpj300EMNbnGnlrAQ8daQACmJfCMSO7MZYuW1tMGCwG4jCcMpx5lYhRAqX6NGjayhW9pviCfCbcyCzkcsQtz32EjkTgfUoyE6l2qHhRI2JPiIx8wRvMHdTagAdWvyEb8LgZcyjoY2UNOwQXlpg2fFUM6zNmvWLF+XRTuvgFPmgENwHAW3WahO6uCNi+RAjRZHTFgWzuDBg1MMn+58+ifX4xHB7VuvXr2q059//rmVkog/KYRYcEgILDonmdEeb3BULOxRXgjJhnQIYmQc0TZR1ORlOZ64c34/UYPwDqHOOKK4FkGT1A7y2j57iAM6kiZOnGhBCF7nk5K4D4M1cUCdO3eWzSTquwJOmQMOxah22WWXKumGybvpppsa7CCycBNSDR4O1Ckvk5tZjDGWYD8KQTnCI4OHBbe118Xm7pWfjGHAgAE2ElceJ24Ie4cfQprhPkmkApDQKcFMnvfyHSmMGCGkCpnugXeKCGJCBbwQv8kmm2xinn/++RQ7DrzkN6EEiBdeor4R0oBRPKmkgFPmgINEgPHSJQqySHgDYmeRwIIni/QGznsl7sdmgxrm2kJ6uPbaa+2bNpvL2kv7gBmgJeNaWFCoHaiHXttmMSN9ALBy0eLpQurBjuPG7mVc8hrGgypFZrhTVzmPWolL3mt2OmPk9yHUID2BFkmJoEcvY6Q/xoOkJN3zcszF/q6AU8aAw0TGsIvE4d7kLDrsLthwHHEdovg111zja6JyH5niLDi5mAGKrl27uuZ9f9Iu6h5qn2yXXC3e+KQmeFmArmPACy8SbnJHgAWuffjjFbzcve6TsbG4sZFJwrOGuuaHcI+TdgGAy2fGsM/vhzcrH3ENfCMoU3oP890X53kFnDIGHKQVJj6xGW5RsfhIc5DucPJ38GTxZpaTPd9EpH0KYvEGlhMcVQA1jk8/wCD7wz3P210SqosET3ku33dsNkgdkvDcEYENwPkl7iHSGkAgH80Ri57ASUpN+OEl9xHBDQBSLsQRtjCikb3YxGgDryE2paSmOCjglDngILmg4jgRG9crGc1ykWDoxfPz9dKaLX4BAgADcGT9F4CIoMCHH364ql+3gLx8YohFvWjTpk3V5UgAxM7Ql5+FTAOoeQAgzy1dxti3UNEAxiCEtJUuyUybNs3GIskgS69t440iMRa7kCPawUiOapyP4DuGfHgkwx3y3RfneQWcMgYcFhqeJ0LuARImJEmZxKVImwOFuXj7Mxn8En3g/iVSVhKZ5lJtk+dyfUdywIBKJrgsI0pKAoZYLzFC6e3TJgZyPGqydATeJLxDFMXyS4BeumpKG0gXSE1OhfXbLi8IfiMH/EgtqG1e7DI8J7E4o0ePtgXc/fYdx/UKOGUOOICBC5IDHAhQI7hPErs44hFiwvol7iHuA6OsDK6jLOn+++/v2ygLKJL3hTtcRt5StB0bh99C4+55sNmQ54UB3S1mjlGUDDXGLwFg2JhkDhQxT4ANvHAqrN92McADZO6FAH9xrxOo6AXEUMe4XoK13zFEeb0CThkDDguKfBxEbCYuej0Jjw1FdjgghIGXrV/8qipuYrI4UAVkwBkTC2B75513qha4uz7XJ290bDcApRwPrnCKjDPeIIRKBhjgMnZgAE9w6xO5zHc/tPnmm1vAIUrYEdUEMSB7sbe4e9I/seMQdSztOKi6eNRQ/SRP0u/lf1RG3OuEPiSRFHDKGHCIrSERk5gTFirGTN7yUhIhMJAEyaCSA5MakMBThR3IEf3hcfFbYQ/pg7oyct9swACVD1Uh34Jz/ad/0gYeHMaD3ckR0dWoajyDV+JaklR5ZhkFjGpKlLWXSO1sfQE0GLOlHQd3N6ofybHOFpftftzrTz31VIpNLdu1xTiugFPGgMOPy1vdJfQBAFTyk4S6hVrh1Ax5zut3FiAiPxKIXIBIPQAekpYXAhSQwli4Mp0BLxoG2kI33iPNgcUsY3uIwEbNQorwCmbwlSzw9KRSwgqIb0ItDEr8Dkhh6TYxVEz4m48AHFQ6CVj57onzvAJOGQMOagSRpxhLcVvjNZJFyAEKbAYs8HxvzlyTEqBAFQC86tSpU3UpXiCCDL1KT85+gzdJAqBLhOR5CiFUP1QoJB1HgCEueMbuxUbCs6K2oPaQMS8JqQeJqRDiNyFZld9KjsdLnSL65XdGbVaVyt+vUGPpD+tPqfbRPq5L3KEsBDmxvTTBsEplq1/UGoLQqHzH/tt4UKS7dPr06TZwz09luWw8AmgACoDHEYsZKcBrThGAgAGbEheO4DceGozazvbizgX5zJTm8Nprr1kJjcWejwBFqgjiRXPR29wDD/fcc0+795TfOSX75HldoCLeOknYhwC0XO1jaIff6TWnZTvF/K4SThlLOCwOFiqeKSQZdi2Qb01UHoo2hUV4V/AkSUKFAaC9gIVzh8sYIewXSElTpkzxrPLI/uV3+IFbnHo40iiLd4kEV6SIXIvZtUVeFsAlCUMt4BrGexKgxkgus8fpC5c5dqNsfXCcRFrGIneskOMs9ncFnDIHHCYukcZIN9hBHCH9EKODbcCr7cLdm+mTyY6qgmoi1TNsJFTCw3OTqx/AgDc4ACntQJ988omVeJiohRJjRCoh0ppAQEl4qpAEsy1mdy0SIsZr6XYGFAlKBFydO9tdH+QTXpAThZ1ItsceXCScZtt1gvsow8GLpH79+kG6jvweBZwyBhwWD6I/wEIhb2mI5a2OV4lJ7OWt7mUmIs6zGKX9gEVAACBifq5+GCsLjDG567gXcKAEpzvmZRy5rkF6IFSAPwmMjA9JDL7kInZYIFdJqlO4w3FbUzQrrHFi9OXZ5W+G2gYQZUub4CVCxDdxRdKWlut54j6ngFPGgMNkAgAImkOdkhIGJQ9cbEdYkw6AwGaUrqaxcDiezUYC2GDsxJvWtGnTquHwJid3isRLOfaqCwJ8oS+C9ZDEZEkJsseJG0KtykY8Hx49PEhyPEg2jFMCWLY2vB7HjpO+hQyA4nZPlZKPaxOjOqohrn+ZwuHOJ+FTAafMAYe3IQFjskwnE4+KdCQ0hkksCAynxNHIZE6M9NiQiD7ORNyHoRj1Ttp62FkBlzWxQmESUcJ4q2R5VCQfJCzc2pkWM0BF/BJql/RyoU4RpIgkGZZ0w7PSFvt8pRdFJxMfiTGTx46xEMTJjp4SEMPkXaFtKeCUOeAwMfmTbzxKbFKHFy9V2BMzU31eJhmuZ7K90/tjIaOKsWCly56JTeoAb/SwiTEgpRAyIAn3OwbqTOUvkG4IkEwPHETNISiPBNgwif6IZkbqk+DNbwl4Z4oMB3B4pih4FtazKeCUOeCkTxQWOJGo2CvCfCO7fpBQUJ/SvTgUA8f+wEKS/TIeIqBRH6R0Q7AfSYz5dj1w/fr5pE8Wc7q3CkkLTxMqnBwjbePdQ3JjrJKIeaG0RyaJQ14X5DtjQBIjt0wSgX0YqQGYdMKLReR0UkkBp8IAh7c3pSMAHbnAw5qgLGYq7LGYZfssDhYmLlu5mJG8iLOh5oskFhXXR0WMgQLlAKMcD7lfuPYXLlxY1TXPRCIq6pYMKyCFAXsVABWm/cZ1DDhTARBPo0zHoEohvCF+yPXLGLFJ4Y2UOW2uraR8KuBUGOBQ3oEqfYUkGOabvCwCPDnpb2b2q8LGwGJmkbOgKARGTRnpVaFsBCkZgFO6Cpavb6/nMWATpIial75nOXYTjMoAJgsZlYYSH+nPQ40aeBklATQY3WXBNMaEJwopB4KX/AFC2JOSTAo4FQQ4GEbJ98FgjPoQFQEkvGWJPJb7j7PISbNgYz5AB0M2huv0/bBx4WNjAXiiJACFuB/ifySwUfyc8qMEG2JfQv0EWKQdjPGTJ0ZaiLw37PECLgQAIgWmS1eoeBix4RMeRyS2pMbfOL4o4FQQ4GBvwPPBwpdqhJsMYX4COoAbEo1ckAAdiZIYrrGjyIhf+ud8oeUy/DwHhmqkHAkm3E+lPXLBGB+1kJ3q4trGmIuEUUhmuGsr1yeAQ8wPW/9SzlUSvyN1nvFCEn8j1S55XZK+K+BUCODgYiZTfOrUqSkAEOVkbNy4sVVFABYvhJ0H9YHUARZaHASQUPoC744s25Grb9z7SGCUi4gauBkH4I36R9gAkcRx9Jnr+Qs5p4BTIYCD4ZHyFEzeOAkJAg+ULFSVqX8ABuMrBu0wI3Yz9SWP0S9xN6gsqC75FjOlTgEbginjJH43DOuogEktkO6FHwo4FQI42E54i0fhvs010RD7WSi9e/e2qolUr9x9TEKCAzEUo8bkW/TuvjA/SRglBWTnnXdOSVtwfaDqEYBIcCAG23QVy10X5Se8w55EPhVJmsUYQ6HPp4BTIYBDkB9xLUF3KChkogEgqAJUw6O0A6UTMNgiyZBigQuc9ADGVgywcc+GgRhwxIiM3QZJAsAk7YGyEBjBAcS4pUQ3Pj4BHVRU3PnU40FyRELjeCYwl/cm4bsCToUADoF0RKiycGR8TFyTENWFP+wkLGyyrlnI2G3wniVlsQAmLGA8QixmPEDwzgXZFRMQ3W8FHxkHYyT2BmmHZNT27du7SxL7qYBTIYDDQmJ/qvQtYooxM1kwUBIWb67nL4Vx8ruy1xheLBnLlOu5inlOAadCAIdJNnHiRJteQAmGpC/2Yi6KUuobUMQ+lr5LaVKfQQGnggAHewT1ZsaNG6eAk9QV6XNcqKbYvwhBKAVSwKkgwGFCEvyHWzfqgLVSmPylPkbUKXK8Bg8enNGzlsTnU8CpMMAhjgQphwBApdLmACEORHPjJk+K0T0fR5MKOP8HAAD//2vBNfkAABfVSURBVO2dB5AUxRfGHzkHyQgnd6RDJCqpJClapRSUgiQBAyAGDskipQRFgoCgBAsEMZDBEkoJIooUCIIEEUWiiCDpkOCBBMn/+/rvXA14tzep92Znv65abtid6e355vVvX79OmW4kJ9GUdu/eLY899pgkJSVJpkyZbH0LitW9e3cZOHCgrev8cvKVK1dk1KhRMnHiRMmePbtfisVy2FTg+vXrEhMTIwsWLJC4uDibV2fc6f/88480a9ZMduzYIVmyZLFdkOrVq8vMmTOlSJEitq8NdUEmAieUPO4+27Jli7Rr104uXrxoG7juvplXe6UAfvj69esnffv2jahnSOBEmYcDg8ev49ChQ2X69Ole2T/zCaMCgE1sbKwsX75cChQoEMZvdv9VBE4UAgdm88cff0ibNm3k8OHD7q2IOYRdgW7dusmgQYPC/r1uv5DAiVLgXL16VUaOHClTpkyRzJkzu7UjXh8mBeDdlC5dWj7++GOpXLlymL7Vu68hcKIUODChjRs3SqdOneTMmTMRFQfwzvwjLyc0hxG76dmzZ0QG/QmcKAbOtWvXZMSIEfRyIoQ7gE2VKlVk4cKFkj9//ggp9c3FJHCiGDgwhZMnT0r79u1VN6XdIQI3mxL/p1uBXLlyydixY6VFixa6v0pb/gROlAMHloWxHAMGDBCM0WHypwLwRps3by7jxo2LuJ4ps6IEDoEjx48fl+eff17FdBhANlcPfxwjUFywYEGZN2+eYOBbJCcCh8BR43LWr18v6Go9deoUA8g+q9HZsmWTYcOGSceOHSO+R5HAIXBSqhe6WjG2A7+oTP5QAIHiJk2ayIwZMyRr1qz+KJSLUhA4BE6K+aB7HHPE0AvCplWKLBl2APCXKVNGJkyYIHXq1Mmwcnj5xb4FTrJrf6NQoUJe3mtKXtE8eTNFhDQO9u/fL61atZJjx445mlyXRrZ826YCgA16DSdNmqR6pYLyA+Bb4MTGxt7AxLSHH35YypYt66nxEzihrX/dunVqRvyJEycYzwktlbZPMZO6Q4cOMnz48EA0pQyhfAuc5ALeAOHjK8bLoMGDVMDMKLTbvwRO+grOmTNHxXMuX76c/sk8w1MFELdBE2ry5MlSqlQpT/PO6Mx8C5zktVpuFC1aNHl8yMvSteuzgkFPXiUCJ30lL1y4oIAzf/58ejnpy+XZGWhKFStWTAWJI70LPDVRfAuc5LbrDcxmLl68eGrldvUegWNNPgSR+/fvL8uWLbN2Ac9ypQBgU6FCBRk9erTUq1fPVV5+vdi3wEl2K1WTSodwBI51VRMTEyUhIUE2bNjAnivrstk+E7DJmTOnWqPo/vvvD6xX6VvgJD8AbYNBCBx79QFr5/Tu3VuNRLZ3Jc+2ogBMPbmTRDVhmzZtGljYQAsCJzkwbSfBOCJ5TWM792o+F93kWBZh9erVga4Q5nsOxzHmSJUrV07NkQpqM8qsI4FD4JjtIeQxVgfs0aOHbN68maORQypl7UP8eFWsWFHGjx8vNWrUsHZRhJ9F4BA4tkwYns67774rs2fPFqwayORMAXR9165dW626iDVuoiUROASObVvHMhbvvfeejBkzRtAk4Do6tiVUA1qxxKuOXlj7pQnfFQQOgePI2vALjV0DMBL2999/93QkuKMCRcBFaEKhJ6pLly5quEGOHDkioNTeFpHAIXAcWxSg8+OPP6otZxDXCcp8H8eChLgQnmCJEiXU5FgspOXlQNYQX+u7jwgcAse1UWJUMjwdrBzIzfVulhNeDeZFIV4zePBgqVmz5s0nRNn/CBwCxxOTP3v2rOoyxyhZzDhHXCfaYzvwarDiAYZRYGtpxGui3QskcAgcT4BjZHLo0CEVTF66dKlcunQpKqEDrwawvfPOO2XIkCHSoEGDqAeNYR8EDoFj2IJnf8+dOyebNm1Sm85joCBmnEeDtwPQ4IX5UG3btpWWLVsGbra3WyMhcAgctzaU5vWI53zzzTdqa5Ndu3apWEZQwYMxSQgEAzLYAQMzvqO9+ZSaYRA4BE5qduHpexgsuGTJElm8eLEAPAARUqTDB94MoILep7p16yrYNGrUKCJ3xPT0gYfIjMAhcEKYh3cfoQsdm+5hNcFp06bJzp07VYwnEhcGRzAYsClZsqRa/hPNp7i4uKjt6rZjJQQOgWPHXjw5F0a3YsUKtVj71q1b1d7mABIqsR+9HpQLCd5M7ty5pXz58tKwYUO19jPmQjFZV4DAIXCsW4vHZ54/f1727dsnK1eulDVr1sjevXslKSlJgccPno/hyWAfb8zobty4sQJN5cqV1cZ0jNHYNwgCh8CxbzUaroAX8fPPP8sXX3yhxvNs375dTQ7FoLlwV2yABkHg+Ph4wWJYWKOmVq1aEo1TEbx+1AQOgeO1TbnOD93qWAoDC6XhhYGEBw8elKNHjwpGNWPyKF4AA5pgxgtfbD42CmI0ifB/HBvNN4Asee1s9cJWujExMSoWAw+mWrVqqnsb7/uxmWfcW6T9JXAIHF/bLOCAAYRofuG1Z88eBR9MGD1y5IhgKxusvYyeL5xn/DV2m8A2uWiewVPCMZpHhQsXFizQj6Avgr2VKlVSL3Rr58mTR51HyOgxCwKHwNFjWWHKFQYMrweAQTMIno9xDGgYTTL8xQtQyZcvn5q1TaiE6SGZvobAIXBM5sBDKqBXAQKHwNFrYcydCpgUIHAIHJM58JAK6FWAwCFw9FoYc6cCJgUIHALHZA48pAJ6FSBwCBy9FsbcqYBJAQKHwDGZAw+pgF4FCBwCR6+FMXcqYFKAwCFwTObAQyqgVwECh8DRa2HMnQqYFCBwCByTOfCQCuhVgMAhcPRaGHOnAiYFCBwCx2QOPKQCehUgcAgcvRbG3KmASQECh8AxmQMPqYBeBQgcAkevhTF3KmBSgMAhcEzmwEMqoFcBAofA0WthzJ0KmBQgcAgckznwkAroVYDAIXD0WhhzpwImBQgcAsdkDjykAnoVIHAIHL0WxtypgEkBAofAMZkDD6mAXgUIHAJHr4UxdypgUoDAIXBM5sBDKqBXAQKHwNFrYcydCpgUIHAIHJM58JAK6FWAwCFw9FoYc6cCJgUIHALHZA48pAJ6FSBwCBy9FhYFuV++fFn+/vtvuXLlily9elWyZcsmefPmlTx58vjm7lGuCxcuyPnz5+XGjRuSJUsWyZkzp+TPn18y2awDbm6KwLEpNh5W9+7dZeDAgW5057URrgAq7759++T777+XLVu2yE8//SRJSUkKPLfddptUrFhRqlevLvfdd59UqVJFChQooEAUzttG5T558qRs2rRJ1q1bJ7/88ov89ttvCoqAYcmSJeXuu++WWrVqScOGDaVw4cKSI0cOrUUkcAgcrQYWtMxRYVatWiULFy6UjRs3qgqNH6HMmTMrTwHeAv5//fp19YKnExMTI02bNpXWrVtL+fLltUty6dIl2bZtm8yZM0e+++47+fPPPwXvwatBOZFQRryuXbsm2bNnlxIlSsiDDz4oHTt2lKpVq2orI4FD4GgzrqBlfO7cORk9erTMmDFDVVQ794fKDY9iwIAB0rJlS23eDsDy9ttvy+TJkxXw7JaxSJEiMnz4cGnevHkKnOzkkd65BA6Bk56N8PN/FTh06JA888wzsn37dkeVEV4P4jvPPfec9OvXT3LlyuWptmjijRgxQlasWOE4LoM4VJ06dWTq1KlSqlQpT8uHzAgcAsdzowpahmfPnlXNDjQ9ELN58cUX5dixY46gA08H0HnhhRfkpZde8szTOX78uPTs2VPWrl3rGDYAIuJNEyZMkEqVKqlmGMqaNWtWzx4pgUPgeGZMQcwIvTtvvPGGlClTRp5++mlV+eDh9OjRQ/bu3eu4csOTGDVqlDz11FOuKzR6ydAMmj59uuPyADYIIE+aNEnKli0rJ06ckFdffVUeeOABadu2rSO4pmYPBA6Bk5pd8L1kBVAJly1bJr169VK9N3379pUnn3xSdSdv2LBB+vfvr3p9jECsHdHg6cTFxckHH3ygvAk715rPRT5z586VwYMHq+aKky5u5FGtWjUZM2aMChifOnVKhgwZIp999pncddddCmQArheJwCFwvLCjQOaB3h38uu/Zs0d5DqiYr7/+unTt2lX1+MDT6dy5sxw5csSRBwCgtW/fXsaNG+fYM9m/f7+0a9dOlcEJbFAGxGwQCC9YsKAaqwOwAjbo1cLn8MIQLPciETgEjhd2FMg8Fi1aJKh8aP4gATiolK+88oq0adNGeTo//PCDCgA7aV4hv9y5cysPAuN17CZcP2XKFBUotnstzsf1aEahaYfYTWJiogwdOlQ+//zzFAACOIUKFVLvedGlT+AQOE5sNfDXoDJ26dLlPz0+eB9BVPQyJSQkKC9g69atKgjsxNNBBUQ8CE0ieBR2EuJL6PH68ssvUwBh9XrcR6NGjWT8+PFSvHhxQRyoT58+snjxYgUicz4ALiCLpqWT5qM5LwKHwDHbA4//VQAVsEmTJoImy61NFVTWfPnyKUigyYXeqx07dijo4Hw7CQPvGjRoIB9++KGaZmDnWowixpgejB6+tYyh8kH569atq5pyCBCjhwsxG8AmNaDgfAwKnDZtmvLqQuWd3mcEDoGTno1E5ecHDhxQwMFAutQSKiFGEWOaC7q4MSVg/fr1yhNAzMeOt3LHHXeokcu33357al+V5ns7d+6URx55RC5evJjmObd+gHIDpOh5Q9D6zJkzapoOYjahUnx8vMyePVvslvHWPAkcAudWm+D/kxX49ttv5Yknngg5ohiVF97NsGHDpEOHDgoy8HTQfX706FHLXgeaNAsWLJAKFSrY0h5jglq0aGEZbojH1K9fXw3qw7wpjC96+eWXVXwmNc/GXBhMz5g1a5btMprzwDGBQ+DcahP8f7ICaF7Ae0ElTS9hYibiMIj5wNPB/KXXXntNNbPSq8jIG0FZeA+Y7GknwSuBd2XFm0KTC4FplAvBX/TAwctBYNxKGTEtY+bMmVK5cmU7RfzPuQQOgfMfo+AbIp988okKDFsBDjwdJPTwADoYhWxMgbASW8H8pXnz5tmuzF9//bXywqyMBMZ9wAsbOXKkKitGJS9dulQdW/mnWLFiysNBb5abROAQOG7sJ7DXYkkHdH2jJ8hqQpc5PA54OGiSWYEN8kZc5NNPP1Wjma1+F87DkhiYZGkFijgfYMTARcRt0PVtxbPBdUixsbEKOAgyu0kEDoHjxn4Cey16gDAgLq2gcVo3jkpsFQDIAxDAaN758+er9WjSyje19w8ePKhiOGgeWU2AoOGRWb0G56EpheUu4Om4SQQOgePGfgJ7LTwbdDljYJ9VT8WJGOh+R1MH0wrsLn6FyotrETzWWUYAFKOZ33rrLdeTTQkcAsdJPYmKazCcf+LEiVrvFYPqUJHRs2U3YQwP4kbvv/++reaR3e8BfOHdYCyO20TgEDhubSiw12NFv06dOqmYhw4PAk0b9BghfuO0qYJRxt26dVMjhXU8CEANS1Wg1w7rH7tNBA6B49aGAns94jdYogG/7la6nu0KgUXMMY8JwWmnCYuio0t++fLlWrwcDG7ECoLNmjVzWsSbriNwCJybDIL/uVkBTFVo1aqVGv7vpZeDuMi9996rpgtgEJ6bhMGGiOUgeGyn5ym974QHBtC88847alR1eudb+ZzAIXCs2ElUn4NmC1bnO336tCfBWcAGo4sxNwk9YV4kjOPBoD6su+wFGNGUKl26tBoBXa5cOS+KqPIgcAgcz4wpqBmhJwmTK9G0wP5TbrwIwAZjWbCM5z333OMJHKA7tq0BwLB4utsyGrElBLMxydPLROAQOF7aU6DzQhd57969bc/OhiioxPA8MH0By3h66TWYRccEUiydgTE6dj0dlBGvxo0bK7i6nahpLpdxTOAQOIYt8G86CqAy7t69Wy0L+tVXX6mYSXrBZFyD5glmZj/++OPqhT2gdCV4UIjpwCPD7g1oBqZXRlyDBM8L423wQpNPRyJwCBwddhXoPNHE2rVrlwIP5jP99ddfKfcLwBieBZpe8BIwoxvLdGLblfQqf0pGLg9QRiyBiqVDMWcKTS4jmcuIssYmT1t49NFH1SZ4KK/OMhI4yYLbSXhY3OrXjmLBPRcD4rC7AeZOYcImuqjRlY5lQ7HnFJabwDa6mA1uQCjcaqCMWDoUo5GxZAbKiMGGKB+2+8WWxIglYXvicCQCh8AJh53xO6iAUoDAIXBYFahA2BQgcAicsBkbv4gKEDgEDmsBFQibAgQOgRM2Y+MXUQECxwFwsJk9JvUxUQEqYE+BqATOr7/+qsZGYPyE3e5KdItj8zFs+cpEBaiAPQUw1wsTQu1upWN8S82aNdXYIrcTXo38jL+Zkiv2/1emNt7x8O/hw4fVTWMMhRPgtG7dWvvCTB7eLrOiAr5RAJvuYR1m1EEnc9Lq1aunBlxi/Wgvk1bgnDp1Sh566CFbewcZNwcOYn1XDG13IpiRD/9SgWhUYNu2bWrzPgxItPtjD72w1c3UqVM9Wy7DeAZagYOdCkFZDE93ctPY/AzLOnqx5KJxw/xLBYKuAEY4jx07Vk0MRR2ym/Bjj3leWPrVyfWhvk8rcDDPBHEYzINxkjDZrWrVqqotiQ3CmKgAFUhfgc2bN6t6Z2eXCXOuABY6a7CnltetC63AATCwSj6WCXCaQNuuXbuqvaQxL4WJClCB1BVAXUG89NlnnxVAx0mrAjmjh2vu3LkqHJL6Nzl/VytwUCxsk9qrVy9bG53dejvY1gMR9wEDBqjV0W79nP+nAtGuAH7csangm2++KVu2bHEsB6CFZtTKlSvVwvOOM0rjQu3AQfwGvU1JSUlpFMHa23DzMCsYW7s2adJEBbN0Tu+3ViqeRQUyTgHAwZiljsXdP/roIzl79qxjzwZ3gvxq166tljzFLHevk3bgYBkBDODD9hdW9mYOdYMQGHlgGw2MD8DyBE7dxlDfw8+oQCQogAXHMN4Gu5diOQx4OW7rA2I2w4cPd7R/lxXNtAMHhcA6Ju3bt1f0dCuIlZviOVSACthXAD/o2L8L3pIO7wYlCgtw4OVgo7M1a9a4JrB9GXkFFaACVhSAd9OnTx/10uUYhAU4uFkM4MNGYnABmagAFfCXAmiOYbsa9E4hVqorhQ04mE+VkJAgq1ev9rxvX5c4zJcKRIsCCBYbk6V1dsaEDThoH65du1Y6d+6sFpr2ekBRtBgG75MKeK0A6maNGjXU3CndA2zDBhxDJKxujxngGIXMRAWoQMYqANhgOx1sdwPo6E5hBw4CyNhZETsi6nTddAvH/KlApCsA2OTMmVOw8ye2r3E7bMWKHmEHDgqFSZ3dunWTJUuWqBu2UlCeQwWogLcKoCcKkzzbtGkTth//DAEOZMNAJTStFi1apACkqxvO20fE3KhA5CsAzwZ7eCFIjHmK4fBsDNUyDDgoALrIZ82aJePGjVMAYiDZeCz8SwX0KIDRyfHx8TJixAipU6eO58tPpFfqDAWOUTg0rTCcGquTMVEBKqBHAbQiqlWrpta5wbIvGZF8ARwMOsLm9VhhDLNUMTcEAWU2szLCJPidQVIAdQspJiZG7WmOKUbFihXLsFv0BXCMu8fgo61bt6r1czBmBxvDZ8uWzfiYf6kAFbCoAOI0WGGhaNGi0qpVKzX+LTY2NsMH3foKOIaWEArLWqxatUq9Dhw4IGfOnFGTP0FsvOj9GGrxbzQrALAgIf6JVgECwPBgEKfBeuL169eXuLg430jkS+AY6iDABdAkJiYqzwfbzhw5ckROnz6tBg5iTA8TFYhWBQAZLJaFsTSADOZCValSRS3Li+Vb8ubN67sfZl8DJ5QhGS5jqHP4GRUIsgLw8iMt5BCxwAmyIfHeqEBQFSBwgvpkeV9UwIcKEDg+fCgsEhUIqgIETlCfLO+LCvhQAQLHhw+FRaICQVWAwAnqk+V9UQEfKkDg+PChsEhUIKgKEDhBfbK8LyrgQwUIHB8+FBaJCgRVAQInqE+W90UFfKgAgePDh8IiUYGgKkDgBPXJ8r6ogA8VIHB8+FBYJCoQVAUInKA+Wd4XFfChAgSODx8Ki0QFgqoAgRPUJ8v7ogI+VIDA8eFDYZGoQFAVIHCC+mR5X1TAhwoQOD58KCwSFQiqAgROUJ8s74sK+FCB/wE3qH8s2lBbzwAAAABJRU5ErkJggg==;clipPath=inset(4.05% 4.93% 4.73% 5.28%);" vertex="1" parent="1">
          <mxGeometry x="498.75" y="170" width="132.22" height="140" as="geometry" />
        </mxCell>
        <mxCell id="GZyRYKclA0aXRfN75kWg-7" value="&lt;span style=&quot;font-size: 20px;&quot;&gt;&lt;i&gt;x &lt;/i&gt;(0.5, 0.2, 0.8, ...)&lt;/span&gt;" style="text;html=1;align=center;verticalAlign=middle;whiteSpace=wrap;rounded=0;" vertex="1" parent="1">
          <mxGeometry x="106.8" y="250" width="170" height="40" as="geometry" />
        </mxCell>
        <mxCell id="GZyRYKclA0aXRfN75kWg-8" value="&lt;span style=&quot;font-size: 20px;&quot;&gt;&lt;i&gt;y&amp;nbsp; =&amp;nbsp; g&amp;nbsp; &amp;nbsp; &amp;nbsp; x&lt;/i&gt;&lt;/span&gt;" style="text;html=1;align=center;verticalAlign=middle;whiteSpace=wrap;rounded=0;" vertex="1" parent="1">
          <mxGeometry x="481.86" y="320" width="170" height="40" as="geometry" />
        </mxCell>
        <mxCell id="GZyRYKclA0aXRfN75kWg-11" value="&lt;span style=&quot;font-size: 20px;&quot;&gt;&lt;i&gt;*&lt;/i&gt;&lt;/span&gt;" style="text;html=1;align=center;verticalAlign=middle;whiteSpace=wrap;rounded=0;" vertex="1" parent="1">
          <mxGeometry x="568" y="332" width="39.86" height="30" as="geometry" />
        </mxCell>
        <mxCell id="GZyRYKclA0aXRfN75kWg-14" value="" style="rounded=1;whiteSpace=wrap;html=1;fillColor=none;dashed=1;strokeColor=#FF3333;strokeWidth=2;" vertex="1" parent="1">
          <mxGeometry x="556" y="329" width="23" height="29" as="geometry" />
        </mxCell>
        <mxCell id="GZyRYKclA0aXRfN75kWg-16" value="" style="shape=flexArrow;endArrow=classic;html=1;rounded=0;strokeWidth=2;" edge="1" parent="1">
          <mxGeometry width="50" height="50" relative="1" as="geometry">
            <mxPoint x="680" y="239.41" as="sourcePoint" />
            <mxPoint x="760" y="239.41" as="targetPoint" />
          </mxGeometry>
        </mxCell>
        <mxCell id="GZyRYKclA0aXRfN75kWg-18" value="" style="shape=image;verticalLabelPosition=bottom;labelBackgroundColor=default;verticalAlign=top;aspect=fixed;imageAspect=0;image=https://nsinstruments.com/principles/constructiveif.png;clipPath=inset(0.24% 1.33% 13.77% 7.67%);" vertex="1" parent="1">
          <mxGeometry x="827" y="167" width="219.31" height="143" as="geometry" />
        </mxCell>
        <mxCell id="GZyRYKclA0aXRfN75kWg-19" value="&lt;b&gt;&lt;font style=&quot;font-size: 20px;&quot;&gt;Output Signal&lt;/font&gt;&lt;/b&gt;" style="text;html=1;align=center;verticalAlign=middle;whiteSpace=wrap;rounded=0;" vertex="1" parent="1">
          <mxGeometry x="850" y="127" width="170" height="40" as="geometry" />
        </mxCell>
        <mxCell id="GZyRYKclA0aXRfN75kWg-24" style="edgeStyle=orthogonalEdgeStyle;rounded=0;orthogonalLoop=1;jettySize=auto;html=1;entryX=1;entryY=0.5;entryDx=0;entryDy=0;" edge="1" parent="1" source="GZyRYKclA0aXRfN75kWg-20" target="GZyRYKclA0aXRfN75kWg-21">
          <mxGeometry relative="1" as="geometry">
            <Array as="points">
              <mxPoint x="920" y="430" />
            </Array>
          </mxGeometry>
        </mxCell>
        <mxCell id="GZyRYKclA0aXRfN75kWg-20" value="&lt;span style=&quot;font-size: 20px;&quot;&gt;&lt;i&gt;y&amp;nbsp;&lt;/i&gt;(0.25, 0.1, 0.4, ...)&lt;/span&gt;" style="text;html=1;align=center;verticalAlign=middle;whiteSpace=wrap;rounded=0;" vertex="1" parent="1">
          <mxGeometry x="840" y="320" width="180" height="40" as="geometry" />
        </mxCell>
        <mxCell id="GZyRYKclA0aXRfN75kWg-25" style="edgeStyle=orthogonalEdgeStyle;rounded=0;orthogonalLoop=1;jettySize=auto;html=1;entryX=0.5;entryY=1;entryDx=0;entryDy=0;" edge="1" parent="1" source="GZyRYKclA0aXRfN75kWg-21" target="GZyRYKclA0aXRfN75kWg-8">
          <mxGeometry relative="1" as="geometry" />
        </mxCell>
        <mxCell id="GZyRYKclA0aXRfN75kWg-21" value="&lt;b&gt;&lt;font style=&quot;font-size: 14px;&quot;&gt;Loss (x, y)&lt;/font&gt;&lt;/b&gt;" style="rounded=1;whiteSpace=wrap;html=1;" vertex="1" parent="1">
          <mxGeometry x="491.87000000000006" y="400" width="151.25" height="60" as="geometry" />
        </mxCell>
        <mxCell id="GZyRYKclA0aXRfN75kWg-26" value="&lt;i&gt;&lt;u&gt;Update&lt;/u&gt;&lt;/i&gt;" style="text;html=1;align=center;verticalAlign=middle;whiteSpace=wrap;rounded=0;" vertex="1" parent="1">
          <mxGeometry x="570.97" y="360" width="60" height="30" as="geometry" />
        </mxCell>
        <mxCell id="GZyRYKclA0aXRfN75kWg-33" style="edgeStyle=orthogonalEdgeStyle;rounded=0;orthogonalLoop=1;jettySize=auto;html=1;entryX=0;entryY=0.5;entryDx=0;entryDy=0;" edge="1" parent="1" source="GZyRYKclA0aXRfN75kWg-30" target="GZyRYKclA0aXRfN75kWg-21">
          <mxGeometry relative="1" as="geometry" />
        </mxCell>
        <mxCell id="GZyRYKclA0aXRfN75kWg-30" value="" style="shape=image;verticalLabelPosition=bottom;labelBackgroundColor=default;verticalAlign=top;aspect=fixed;imageAspect=0;image=https://img.freepik.com/premium-vector/sinusoid-impulse-signal-line-black-curve-sound-wave-voice-music-audio-concept-electronic-radio_497399-992.jpg;" vertex="1" parent="1">
          <mxGeometry x="111.53999999999999" y="385" width="160.52" height="90" as="geometry" />
        </mxCell>
        <mxCell id="GZyRYKclA0aXRfN75kWg-31" value="&lt;b&gt;&lt;font style=&quot;font-size: 20px;&quot;&gt;Target Signal (Time Domain)&lt;/font&gt;&lt;/b&gt;" style="text;html=1;align=center;verticalAlign=middle;whiteSpace=wrap;rounded=0;" vertex="1" parent="1">
          <mxGeometry x="102.8" y="348" width="170" height="40" as="geometry" />
        </mxCell>
        <mxCell id="GZyRYKclA0aXRfN75kWg-32" value="&lt;span style=&quot;font-size: 20px;&quot;&gt;&lt;i&gt;y&amp;nbsp;&lt;/i&gt;(0.25, 0.1, 0.4, ...)&lt;/span&gt;" style="text;html=1;align=center;verticalAlign=middle;whiteSpace=wrap;rounded=0;" vertex="1" parent="1">
          <mxGeometry x="101.8" y="470" width="180" height="40" as="geometry" />
        </mxCell>
      </root>
    </mxGraphModel>
  </diagram>
</mxfile>
